<svg xmlns="http://www.w3.org/2000/svg" width="16" height="16" viewBox="0 0 16 16">
    <g fill="none" fill-rule="evenodd">
        <g fill="#BFBFBF">
            <g>
                <g>
                    <g>
                        <path d="M10.653 9.525l-2.19-1.643V4.536c0-.337-.272-.609-.608-.609-.337 0-.609.272-.609.609v3.65c0 .192.09.373.243.487l2.434 1.825c.11.082.237.122.365.122.185 0 .368-.084.487-.244.202-.269.147-.65-.122-.851z" transform="translate(-338.000000, -362.000000) translate(80.000000, 342.000000) translate(87.000000, 16.000000) translate(171.000000, 4.000000)"/>
                        <path d="M7.855 0C3.523 0 0 3.523 0 7.855c0 4.33 3.523 7.854 7.855 7.854 4.33 0 7.854-3.523 7.854-7.854C15.71 3.523 12.186 0 7.855 0zm0 14.492c-3.66 0-6.638-2.978-6.638-6.637 0-3.66 2.978-6.638 6.638-6.638 3.66 0 6.637 2.978 6.637 6.638 0 3.66-2.978 6.637-6.637 6.637z" transform="translate(-338.000000, -362.000000) translate(80.000000, 342.000000) translate(87.000000, 16.000000) translate(171.000000, 4.000000)"/>
                    </g>
                </g>
            </g>
        </g>
    </g>
</svg>
