<svg xmlns="http://www.w3.org/2000/svg" width="24" height="24" viewBox="0 0 24 24">
    <g fill="none" fill-rule="evenodd">
        <g fill="#016599" fill-rule="nonzero" stroke="#016599" stroke-width=".5">
            <g>
                <g>
                    <g>
                        <g>
                            <g>
                                <path d="M14.767 10c-.22 0-.398.18-.398.4v3.537c0 .66-.536 1.195-1.196 1.196H1.993c-.66 0-1.195-.536-1.196-1.196V3.553c0-.66.535-1.194 1.195-1.195h3.539c.22 0 .398-.178.398-.399 0-.22-.178-.398-.398-.398H1.992C.892 1.562.002 2.453 0 3.553v10.385c.001 1.1.893 1.99 1.992 1.992h11.181c1.1-.001 1.992-.893 1.993-1.992v-3.539c0-.22-.179-.398-.399-.398z" transform="translate(-239 -385) translate(51 276) translate(0 85) translate(148 24) translate(40) translate(4 4)"/>
                                <path d="M15.008.536c-.7-.7-1.836-.7-2.536 0l-7.11 7.109c-.048.049-.083.109-.101.175l-.935 3.375c-.039.139 0 .287.102.389.101.101.25.14.388.102l3.375-.935c.066-.019.127-.054.176-.102l7.109-7.11c.699-.7.699-1.835 0-2.536l-.468-.467zM6.231 7.904l5.818-5.819 1.877 1.877L8.107 9.78 6.231 7.904zm-.375.752l1.5 1.5-2.074.574.574-2.074zm9.056-5.68l-.422.422-1.877-1.876.423-.423c.389-.389 1.02-.389 1.408 0l.468.468c.388.39.388 1.02 0 1.409h0z" transform="translate(-239 -385) translate(51 276) translate(0 85) translate(148 24) translate(40) translate(4 4)"/>
                            </g>
                        </g>
                    </g>
                </g>
            </g>
        </g>
    </g>
</svg>
