<svg xmlns="http://www.w3.org/2000/svg" width="24" height="24" viewBox="0 0 24 24">
    <g fill="none" fill-rule="evenodd">
        <g fill="#BFBFBF" fill-rule="nonzero">
            <g>
                <g>
                    <g>
                        <g>
                            <path d="M11.2 17.067H1.6c-.882 0-1.6-.718-1.6-1.6V8c0-.882.718-1.6 1.6-1.6h9.6c.882 0 1.6.718 1.6 1.6v7.467c0 .882-.718 1.6-1.6 1.6zm-9.6-9.6c-.294 0-.533.239-.533.533v7.467c0 .294.24.533.533.533h9.6c.294 0 .533-.239.533-.533V8c0-.294-.24-.533-.533-.533H1.6z" transform="translate(-918 -532) translate(51 206) translate(451 122) translate(416 204) translate(6 3)"/>
                            <path d="M10.133 7.467c-.294 0-.533-.24-.533-.534V4.267c0-1.765-1.436-3.2-3.2-3.2-1.764 0-3.2 1.435-3.2 3.2v2.666c0 .295-.239.534-.533.534-.295 0-.534-.24-.534-.534V4.267C2.133 1.914 4.047 0 6.4 0c2.353 0 4.267 1.914 4.267 4.267v2.666c0 .295-.24.534-.534.534zM6.4 12.089c-.784 0-1.422-.638-1.422-1.422 0-.785.638-1.423 1.422-1.423.784 0 1.422.638 1.422 1.423 0 .784-.638 1.422-1.422 1.422zm0-1.778c-.196 0-.356.16-.356.356 0 .196.16.355.356.355.196 0 .356-.16.356-.355 0-.197-.16-.356-.356-.356z" transform="translate(-918 -532) translate(51 206) translate(451 122) translate(416 204) translate(6 3)"/>
                            <path d="M6.4 14.222c-.294 0-.533-.239-.533-.533v-1.956c0-.294.239-.533.533-.533.294 0 .533.239.533.533v1.956c0 .294-.239.533-.533.533z" transform="translate(-918 -532) translate(51 206) translate(451 122) translate(416 204) translate(6 3)"/>
                        </g>
                    </g>
                </g>
            </g>
        </g>
    </g>
</svg>
