<svg xmlns="http://www.w3.org/2000/svg" width="17" height="29" viewBox="0 0 17 29">
    <g fill="none" fill-rule="evenodd">
        <g fill="#FFF" fill-rule="nonzero" stroke="#FFF">
            <g>
                <g>
                    <path d="M1330.073 27c-.591.001-1.072-.463-1.073-1.037 0-.277.113-.542.315-.738l12.102-11.732-12.102-11.732c-.411-.413-.4-1.07.026-1.47.415-.388 1.074-.388 1.489 0l12.856 12.469c.419.405.419 1.063 0 1.469l-12.856 12.468c-.201.194-.473.303-.757.303z" transform="translate(-1376.000000, -403.000000) translate(48.000000, 87.000000) translate(0.000000, 317.000000) translate(1336.500000, 13.500000) scale(-1, 1) rotate(-180.000000) translate(-1336.500000, -13.500000)"/>
                </g>
            </g>
        </g>
    </g>
</svg>
