<svg xmlns="http://www.w3.org/2000/svg" width="21" height="21" viewBox="0 0 21 21">
    <g fill="none" fill-rule="evenodd">
        <g fill="#E8E8E8">
            <g>
                <g>
                    <path d="M7.3 0H1.7C.763 0 0 .763 0 1.7v5.6C0 8.237.763 9 1.7 9h5.6C8.237 9 9 8.237 9 7.3V1.7C9 .763 8.237 0 7.3 0zM19.3 0h-5.6c-.937 0-1.7.763-1.7 1.7v5.6c0 .937.763 1.7 1.7 1.7h5.6c.937 0 1.7-.763 1.7-1.7V1.7c0-.937-.763-1.7-1.7-1.7zM7.3 12H1.7c-.937 0-1.7.763-1.7 1.7v5.6c0 .937.763 1.7 1.7 1.7h5.6c.937 0 1.7-.763 1.7-1.7v-5.6c0-.937-.763-1.7-1.7-1.7zM19.3 12h-5.6c-.937 0-1.7.763-1.7 1.7v5.6c0 .937.763 1.7 1.7 1.7h5.6c.937 0 1.7-.763 1.7-1.7v-5.6c0-.937-.763-1.7-1.7-1.7z" transform="translate(-198 -216) translate(85 207) translate(113 9)"/>
                </g>
            </g>
        </g>
    </g>
</svg>
